<?xml version="1.0" encoding="UTF-8" standalone="no"?>
<!-- Generator: Adobe Illustrator 15.1.0, SVG Export Plug-In . SVG Version: 6.00 Build 0)  -->

<svg
   xmlns:dc="http://purl.org/dc/elements/1.1/"
   xmlns:cc="http://creativecommons.org/ns#"
   xmlns:rdf="http://www.w3.org/1999/02/22-rdf-syntax-ns#"
   xmlns:svg="http://www.w3.org/2000/svg"
   xmlns="http://www.w3.org/2000/svg"
   xmlns:sodipodi="http://sodipodi.sourceforge.net/DTD/sodipodi-0.dtd"
   xmlns:inkscape="http://www.inkscape.org/namespaces/inkscape"
   version="1.1"
   id="Ebene_1"
   x="0px"
   y="0px"
   width="487.744px"
   height="48.328px"
   viewBox="0 0 487.744 48.328"
   enable-background="new 0 0 487.744 48.328"
   xml:space="preserve"
   inkscape:version="0.48.4 r9939"
   sodipodi:docname="logo.svg"><metadata
   id="metadata43"><rdf:RDF><cc:Work
       rdf:about=""><dc:format>image/svg+xml</dc:format><dc:type
         rdf:resource="http://purl.org/dc/dcmitype/StillImage" /></cc:Work></rdf:RDF></metadata><defs
   id="defs41" /><sodipodi:namedview
   pagecolor="#ffffff"
   bordercolor="#666666"
   borderopacity="1"
   objecttolerance="10"
   gridtolerance="10"
   guidetolerance="10"
   inkscape:pageopacity="0"
   inkscape:pageshadow="2"
   inkscape:window-width="1920"
   inkscape:window-height="1018"
   id="namedview39"
   showgrid="false"
   inkscape:zoom="3.0471293"
   inkscape:cx="260.4417"
   inkscape:cy="18.949618"
   inkscape:window-x="-8"
   inkscape:window-y="-8"
   inkscape:window-maximized="1"
   inkscape:current-layer="Ebene_1" />

















<g
   id="g3003"
   transform="matrix(0.90963868,0,0,0.87501113,2.7228167,2.9535997)"><path
     style="fill:#cccccc"
     id="path3"
     d="m 96.177,21.357 -3.135,-0.088 c -1.27,0 -2.314,0.264 -3.135,0.791 -0.821,0.527 -1.446,1.27 -1.875,2.227 V 45.703 H 79.507 V 14.004 h 7.939 l 0.381,4.688 c 0.742,-1.66 1.704,-2.954 2.886,-3.882 1.182,-0.927 2.544,-1.392 4.087,-1.392 0.429,0 0.825,0.034 1.187,0.103 0.361,0.069 0.728,0.151 1.099,0.249 l -0.909,7.587 z"
     inkscape:connector-curvature="0" /><path
     style="fill:#cccccc"
     id="path5"
     d="m 119.322,45.703 c -0.313,-0.722 -0.582,-1.484 -0.806,-2.285 -0.225,-0.801 -0.386,-1.621 -0.483,-2.461 -0.879,1.543 -2.041,2.823 -3.486,3.838 -1.446,1.015 -3.164,1.523 -5.156,1.523 -3.321,0 -5.879,-0.854 -7.676,-2.563 -1.797,-1.709 -2.695,-4.038 -2.695,-6.987 0,-3.105 1.196,-5.512 3.589,-7.222 2.392,-1.709 5.884,-2.563 10.474,-2.563 h 4.805 v -2.52 c 0,-1.523 -0.4,-2.705 -1.201,-3.545 -0.801,-0.839 -1.992,-1.26 -3.574,-1.26 -1.387,0 -2.457,0.337 -3.208,1.011 -0.752,0.674 -1.128,1.597 -1.128,2.769 h -8.232 l -0.059,-0.176 c -0.137,-2.676 1.03,-4.985 3.501,-6.929 2.471,-1.943 5.698,-2.915 9.683,-2.915 3.809,0 6.889,0.957 9.243,2.871 2.354,1.915 3.53,4.658 3.53,8.232 v 13.096 c 0,1.484 0.112,2.881 0.337,4.189 0.224,1.309 0.581,2.607 1.069,3.896 h -8.527 z M 111.5,39.99 c 1.484,0 2.813,-0.371 3.984,-1.113 1.172,-0.742 1.973,-1.601 2.402,-2.578 v -4.482 h -4.805 c -1.816,0 -3.189,0.45 -4.116,1.348 -0.928,0.898 -1.392,2.002 -1.392,3.311 0,1.074 0.347,1.929 1.04,2.563 0.694,0.634 1.656,0.951 2.887,0.951 z"
     inkscape:connector-curvature="0" /><path
     style="fill:#cccccc"
     id="path7"
     d="m 131.539,30.117 c 0,-5 1.079,-9.033 3.237,-12.1 2.158,-3.066 5.2,-4.6 9.126,-4.6 1.582,0 3.007,0.342 4.277,1.025 1.27,0.684 2.383,1.66 3.34,2.93 V 0 h 8.584 v 45.703 h -7.295 l -0.732,-3.896 c -0.996,1.465 -2.178,2.583 -3.545,3.354 -1.367,0.771 -2.93,1.157 -4.688,1.157 -3.887,0 -6.91,-1.425 -9.067,-4.277 -2.158,-2.852 -3.237,-6.621 -3.237,-11.309 v -0.615 z m 8.525,0.615 c 0,2.773 0.469,4.956 1.406,6.548 0.938,1.592 2.461,2.388 4.57,2.388 1.23,0 2.304,-0.249 3.223,-0.747 0.918,-0.498 1.67,-1.226 2.256,-2.183 V 23.232 c -0.586,-0.996 -1.333,-1.772 -2.241,-2.329 -0.908,-0.557 -1.968,-0.835 -3.179,-0.835 -2.09,0 -3.618,0.928 -4.585,2.783 -0.967,1.856 -1.45,4.277 -1.45,7.266 v 0.615 z"
     inkscape:connector-curvature="0" /><path
     style="fill:#cccccc"
     id="path9"
     d="m 185.416,45.703 c -0.313,-0.722 -0.582,-1.484 -0.806,-2.285 -0.225,-0.801 -0.386,-1.621 -0.483,-2.461 -0.879,1.543 -2.041,2.823 -3.486,3.838 -1.446,1.015 -3.164,1.523 -5.156,1.523 -3.321,0 -5.879,-0.854 -7.676,-2.563 -1.797,-1.709 -2.695,-4.038 -2.695,-6.987 0,-3.105 1.196,-5.512 3.589,-7.222 2.392,-1.709 5.884,-2.563 10.474,-2.563 h 4.805 v -2.52 c 0,-1.523 -0.4,-2.705 -1.201,-3.545 -0.801,-0.839 -1.992,-1.26 -3.574,-1.26 -1.387,0 -2.457,0.337 -3.208,1.011 -0.752,0.674 -1.128,1.597 -1.128,2.769 h -8.232 l -0.059,-0.176 c -0.137,-2.676 1.03,-4.985 3.501,-6.929 2.471,-1.943 5.698,-2.915 9.683,-2.915 3.809,0 6.889,0.957 9.243,2.871 2.354,1.915 3.53,4.658 3.53,8.232 v 13.096 c 0,1.484 0.112,2.881 0.337,4.189 0.224,1.309 0.581,2.607 1.069,3.896 h -8.527 z m -7.823,-5.713 c 1.484,0 2.813,-0.371 3.984,-1.113 1.172,-0.742 1.973,-1.601 2.402,-2.578 v -4.482 h -4.805 c -1.816,0 -3.189,0.45 -4.116,1.348 -0.928,0.898 -1.392,2.002 -1.392,3.311 0,1.074 0.347,1.929 1.04,2.563 0.694,0.634 1.657,0.951 2.887,0.951 z"
     inkscape:connector-curvature="0" /><path
     style="fill:#cccccc"
     id="path11"
     d="m 215.621,21.357 -3.135,-0.088 c -1.27,0 -2.314,0.264 -3.135,0.791 -0.821,0.527 -1.446,1.27 -1.875,2.227 v 21.416 h -8.525 V 14.004 h 7.939 l 0.381,4.688 c 0.742,-1.66 1.704,-2.954 2.886,-3.882 1.182,-0.927 2.544,-1.392 4.087,-1.392 0.429,0 0.825,0.034 1.187,0.103 0.361,0.069 0.728,0.151 1.099,0.249 l -0.909,7.587 z"
     inkscape:connector-curvature="0" /><path
     style="fill:#cccccc"
     id="path13"
     d="m 231.826,6.24 v 7.764 h 5.361 v 6.006 h -5.361 v 16.143 c 0,1.23 0.258,2.109 0.775,2.637 0.517,0.528 1.197,0.791 2.037,0.791 0.449,0 0.839,-0.024 1.172,-0.073 0.332,-0.048 0.713,-0.132 1.143,-0.249 l 0.703,6.182 c -0.86,0.293 -1.695,0.513 -2.506,0.659 -0.811,0.146 -1.694,0.22 -2.65,0.22 -2.949,0 -5.221,-0.81 -6.813,-2.432 -1.592,-1.621 -2.387,-4.189 -2.387,-7.705 V 20.01 h -4.629 V 14.004 H 223.3 V 6.24 h 8.526 z"
     inkscape:connector-curvature="0" /><path
     style="fill:#cccccc"
     id="path15"
     d="m 260.885,41.016 c -0.978,1.699 -2.217,3.008 -3.721,3.926 -1.505,0.918 -3.252,1.377 -5.244,1.377 -3.34,0 -5.953,-1.132 -7.838,-3.398 -1.885,-2.266 -2.826,-5.781 -2.826,-10.547 v -18.37 h 8.525 v 18.428 c 0,2.773 0.375,4.673 1.127,5.698 0.752,1.025 1.92,1.538 3.502,1.538 1.366,0 2.538,-0.22 3.516,-0.659 0.977,-0.439 1.776,-1.088 2.402,-1.948 V 14.004 h 8.555 v 31.699 h -7.09 l -0.908,-4.687 z"
     inkscape:connector-curvature="0" /><path
     style="fill:#cccccc"
     id="path17"
     d="m 285.582,6.24 v 7.764 h 5.361 v 6.006 h -5.361 v 16.143 c 0,1.23 0.258,2.109 0.775,2.637 0.517,0.528 1.197,0.791 2.037,0.791 0.449,0 0.839,-0.024 1.172,-0.073 0.332,-0.048 0.713,-0.132 1.143,-0.249 l 0.703,6.182 c -0.86,0.293 -1.695,0.513 -2.506,0.659 -0.811,0.146 -1.694,0.22 -2.65,0.22 -2.949,0 -5.221,-0.81 -6.813,-2.432 -1.592,-1.621 -2.387,-4.189 -2.387,-7.705 V 20.01 h -4.629 v -6.006 h 4.629 V 6.24 h 8.526 z"
     inkscape:connector-curvature="0" /><path
     style="fill:#cccccc"
     id="path19"
     d="m 294.898,29.561 c 0,-4.727 1.318,-8.599 3.955,-11.616 2.637,-3.017 6.288,-4.526 10.957,-4.526 4.688,0 8.359,1.504 11.016,4.512 2.655,3.008 3.984,6.885 3.984,11.631 v 0.615 c 0,4.766 -1.324,8.647 -3.971,11.646 -2.646,2.999 -6.303,4.497 -10.971,4.497 -4.688,0 -8.355,-1.499 -11.002,-4.497 -2.646,-2.998 -3.969,-6.88 -3.969,-11.646 v -0.616 z m 8.526,0.615 c 0,2.891 0.508,5.21 1.523,6.958 1.015,1.748 2.655,2.622 4.922,2.622 2.207,0 3.822,-0.879 4.848,-2.637 1.026,-1.758 1.539,-4.072 1.539,-6.943 v -0.615 c 0,-2.813 -0.518,-5.107 -1.553,-6.885 -1.036,-1.777 -2.666,-2.666 -4.893,-2.666 -2.208,0 -3.824,0.894 -4.85,2.681 -1.026,1.787 -1.537,4.077 -1.537,6.87 v 0.615 z"
     inkscape:connector-curvature="0" /><path
     style="fill:#cccccc"
     id="path21"
     d="m 346.754,21.357 -3.135,-0.088 c -1.271,0 -2.314,0.264 -3.135,0.791 -0.821,0.527 -1.446,1.27 -1.875,2.227 v 21.416 h -8.525 V 14.004 h 7.939 l 0.381,4.688 c 0.742,-1.66 1.703,-2.954 2.885,-3.882 1.182,-0.927 2.545,-1.392 4.088,-1.392 0.429,0 0.824,0.034 1.186,0.103 0.361,0.069 0.729,0.151 1.1,0.249 l -0.909,7.587 z"
     inkscape:connector-curvature="0" /><path
     style="fill:#cccccc"
     id="path23"
     d="m 360.201,6.416 h -8.555 V 0 h 8.555 v 6.416 z m 0,39.287 h -8.555 V 14.004 h 8.555 v 31.699 z"
     inkscape:connector-curvature="0" /><path
     style="fill:#cccccc"
     id="path25"
     d="m 385.924,45.703 c -0.313,-0.722 -0.582,-1.484 -0.807,-2.285 -0.225,-0.801 -0.385,-1.621 -0.482,-2.461 -0.879,1.543 -2.041,2.823 -3.486,3.838 -1.445,1.015 -3.164,1.523 -5.156,1.523 -3.32,0 -5.879,-0.854 -7.676,-2.563 -1.797,-1.709 -2.695,-4.038 -2.695,-6.987 0,-3.105 1.195,-5.512 3.588,-7.222 2.393,-1.709 5.885,-2.563 10.475,-2.563 h 4.805 v -2.52 c 0,-1.523 -0.4,-2.705 -1.201,-3.545 -0.801,-0.839 -1.992,-1.26 -3.574,-1.26 -1.387,0 -2.457,0.337 -3.209,1.011 -0.752,0.674 -1.127,1.597 -1.127,2.769 h -8.232 l -0.059,-0.176 c -0.137,-2.676 1.029,-4.985 3.5,-6.929 2.471,-1.943 5.699,-2.915 9.684,-2.915 3.809,0 6.889,0.957 9.242,2.871 2.354,1.915 3.531,4.658 3.531,8.232 v 13.096 c 0,1.484 0.111,2.881 0.336,4.189 0.225,1.309 0.582,2.607 1.07,3.896 h -8.527 z m -7.822,-5.713 c 1.484,0 2.813,-0.371 3.984,-1.113 1.172,-0.742 1.973,-1.601 2.402,-2.578 v -4.482 h -4.805 c -1.816,0 -3.189,0.45 -4.117,1.348 -0.928,0.898 -1.391,2.002 -1.391,3.311 0,1.074 0.346,1.929 1.039,2.563 0.694,0.634 1.657,0.951 2.888,0.951 z"
     inkscape:connector-curvature="0" /><path
     style="fill:#cccccc"
     id="path27"
     d="m 408.453,45.703 h -8.555 V 0 h 8.555 v 45.703 z"
     inkscape:connector-curvature="0" /><path
     style="fill:#cccccc"
     id="path29"
     d="m 422.977,45.703 h -8.555 v -7.5 h 8.555 v 7.5 z"
     inkscape:connector-curvature="0" /><path
     style="fill:#cccccc"
     id="path31"
     d="m 442.686,46.318 c -4.727,0 -8.418,-1.45 -11.074,-4.351 -2.656,-2.901 -3.984,-6.636 -3.984,-11.206 V 29.59 c 0,-4.746 1.289,-8.632 3.867,-11.66 2.578,-3.027 6.123,-4.531 10.635,-4.512 4.258,0 7.523,1.304 9.799,3.911 2.276,2.607 3.414,6.119 3.414,10.532 v 4.424 h -18.896 l -0.088,0.176 c 0.137,2.168 0.795,3.926 1.977,5.273 1.182,1.347 2.936,2.021 5.26,2.021 1.914,0 3.539,-0.195 4.877,-0.586 1.338,-0.391 2.721,-0.986 4.146,-1.787 l 2.314,5.273 c -1.27,1.036 -2.988,1.904 -5.156,2.607 -2.168,0.703 -4.533,1.056 -7.091,1.056 z M 442.129,20.01 c -1.719,0 -3.043,0.591 -3.971,1.772 -0.928,1.182 -1.488,2.75 -1.684,4.702 l 0.059,0.146 h 10.43 v -0.645 c 0,-1.855 -0.381,-3.315 -1.143,-4.38 -0.761,-1.063 -1.992,-1.595 -3.691,-1.595 z"
     inkscape:connector-curvature="0" /><path
     style="fill:#cccccc"
     id="path33"
     d="m 479.746,41.016 c -0.977,1.699 -2.217,3.008 -3.721,3.926 -1.504,0.918 -3.252,1.377 -5.244,1.377 -3.34,0 -5.953,-1.132 -7.838,-3.398 -1.885,-2.266 -2.826,-5.781 -2.826,-10.547 v -18.37 h 8.525 v 18.428 c 0,2.773 0.375,4.673 1.127,5.698 0.752,1.025 1.92,1.538 3.502,1.538 1.367,0 2.539,-0.22 3.516,-0.659 0.977,-0.439 1.777,-1.088 2.402,-1.948 V 14.004 h 8.555 v 31.699 h -7.09 l -0.908,-4.687 z"
     inkscape:connector-curvature="0" /><polygon
     id="polygon35"
     points="12.343,35.494 20.974,22.599 37.77,45.227 16.966,44.233 0,45.842 "
     style="fill:#f6af95" /><circle
     id="circle37"
     r="24.104"
     cy="24.225"
     cx="42.084"
     d="m 66.188,24.225 c 0,13.312272 -10.791729,24.104 -24.104,24.104 -13.312272,0 -24.104,-10.791728 -24.104,-24.104 0,-13.312271 10.791728,-24.10399971 24.104,-24.10399971 13.312271,0 24.104,10.79172871 24.104,24.10399971 z"
     sodipodi:cx="42.084"
     sodipodi:cy="24.225"
     sodipodi:rx="24.104"
     sodipodi:ry="24.104"
     style="fill:#f08262" /></g>
</svg>